<svg viewBox="0 0 200 150" xmlns="http://www.w3.org/2000/svg">
    <g id="Layer_1">
        <title>Layer 1</title>
        <path transform="rotate(-89.2648 40.1766 64.2324)" stroke="#3cc43c" id="svg_6" d="m33.64676,96.91914l2.4487,-65.37342l8.16232,0l2.4487,65.37342l-13.05971,0l-0.00001,0z" fill="#aaff56"/>
        <path transform="rotate(-179.844 132.484 107.573)" stroke="#56ff56" id="svg_7" d="m125.64229,116.7335l2.56556,-18.32148l8.55186,0l2.56556,18.32148l-13.68297,0l-0.00001,0z" fill="#aaff56"/>
        <path stroke="#070707" id="svg_2" d="m122.08832,124.18954l0,0c0,-5.79897 4.701,-10.49997 10.49997,-10.49997l0,0c2.78476,0 5.45547,1.10624 7.4246,3.07537c1.96913,1.96913 3.07537,4.63984 3.07537,7.4246l0,0c0,5.79897 -4.701,10.49997 -10.49997,10.49997l0,0c-5.79897,0 -10.49997,-4.701 -10.49997,-10.49997zm5.24999,0l0,0c0,2.89949 2.3505,5.24999 5.24999,5.24999c2.89949,0 5.24999,-2.3505 5.24999,-5.24999c0,-2.89949 -2.3505,-5.24999 -5.24999,-5.24999l0,0c-2.89949,0 -5.24999,2.3505 -5.24999,5.24999z" fill="#020202"/>
        <ellipse stroke="#9cdd5a" ry="40.83324" rx="62.66653" id="svg_1" cy="59.49969" cx="132.66664" fill="#aaff56"/>
        <path transform="rotate(89.1698 160.325 58.2875)" stroke="#56ffff" id="svg_9" d="m185.51954,40.37137c0,4.94739 -11.27996,8.95805 -25.19449,8.95805m25.19449,-8.95805l0,0c0,4.94739 -11.27996,8.95805 -25.19449,8.95805c-13.91453,0 -25.19448,-4.01065 -25.19448,-8.95805m0,0l0,0c0,-4.94739 11.27995,-8.95805 25.19448,-8.95805c13.91453,0 25.19449,4.01066 25.19449,8.95805l0,35.83221c0,4.94739 -11.27996,8.95803 -25.19449,8.95803c-13.91453,0 -25.19448,-4.01064 -25.19448,-8.95803l0,-35.83221z" fill="#56ffff"/>
        <ellipse stroke="#ffff00" ry="5" rx="4.83333" id="svg_10" cy="124.33333" cx="132.83333" fill="#ffff00"/>
        <path id="svg_12" d="m-44.275,181.50889c0,0.09143 -0.33355,0.16556 -0.745,0.16556m0.745,-0.16556l0,0c0,0.09143 -0.33355,0.16556 -0.745,0.16556c-0.41145,0 -0.745,-0.07412 -0.745,-0.16556m0,0l0,0c0,-0.09143 0.33355,-0.16556 0.745,-0.16556c0.41145,0 0.745,0.07412 0.745,0.16556l0,0.66222c0,0.09143 -0.33355,0.16556 -0.745,0.16556c-0.41145,0 -0.745,-0.07412 -0.745,-0.16556l0,-0.66222z" stroke="#56ffff" fill="#56ffff"/>
    </g>

    <g>
        <title>Layer 2</title>
        <g id="svg_13">
            <rect fill="#ff0000" stroke="#bf0000" x="50" y="10" width="75" height="8" id="svg_11"/>
            <rect fill="#ff0000" stroke="#bf0000" x="125" y="10" width="75" height="8" id="svg_5"/>
        </g>
        <g id='blade'>
            <rect id="svg_15" height="5.33333" width="25" y="62" x="32" stroke="#bf0000" fill="#ff0000"/>
            <rect id="svg_16" height="5.33333" width="25" y="62" x="0" stroke="#bf0000" fill="#ff0000"/>
            <ellipse ry="3.99993" rx="4.12493" id="svg_3" cy="65" cx="28" stroke="#bf0000" fill="#ffff00"/>
        </g>
    </g>
</svg>